<?xml version="1.0" encoding="UTF-8"?>
<svg xmlns="http://www.w3.org/2000/svg" viewBox="0 0 1100 1100" font-family="Menlo, Consolas, monospace">
  <!--
    SARCOM KIOSK-004 — Selection → recenter + sidebar-replacement detail.
    Single-design v1a mockup. Two stacked 800x480 lab fixtures.

    Per dev-log/2026-05-19-v1a-ui-data-model-collapse-nodedata.md, the v1a
    UI data model is one uniform NodeData struct. The detail surface is
    ONE layout that renders the same field set for any selected node;
    icon glyph + colour come from inventory.kind lookup, not from a
    per-kind layout branch.

    Panel A: tag-3 selected (no-fix; rich case with LAST FIX · {age}
             framing scoping lat/lon to last_valid_fix_pos)
    Panel B: relay-2 selected (overdue; identical layout, different
             NodeData fields populated)

    Both panels surface the three-layer basemap composition per
    pmtiles_map.rs:82-125 (PMTiles basemap + LIDAR hillshade + OSM XML
    overlays). Sidebar-replacement detail; no overlay; no tap-outside
    dismiss; 150 ms eased pan recenter.

    Gateway detail (formerly Panel C) is removed: gateway-self status is
    deferred from v1a per KIOSK-005 (deferred stub).
  -->

  <defs>
    <pattern id="map-grid-4" width="40" height="40" patternUnits="userSpaceOnUse">
      <path d="M 40 0 L 0 0 0 40" fill="none" stroke="#1a2530" stroke-width="0.5"/>
    </pattern>
    <linearGradient id="hillshade-4" x1="0%" y1="0%" x2="100%" y2="100%">
      <stop offset="0%" stop-color="rgb(180,180,185)" stop-opacity="0.0"/>
      <stop offset="35%" stop-color="rgb(200,200,205)" stop-opacity="0.30"/>
      <stop offset="65%" stop-color="rgb(70,70,75)" stop-opacity="0.36"/>
      <stop offset="100%" stop-color="rgb(40,40,45)" stop-opacity="0.16"/>
    </linearGradient>
    <radialGradient id="ridge-4" cx="55%" cy="40%" r="55%">
      <stop offset="0%" stop-color="rgb(210,210,215)" stop-opacity="0.38"/>
      <stop offset="55%" stop-color="rgb(150,150,155)" stop-opacity="0.20"/>
      <stop offset="100%" stop-color="rgb(40,40,45)" stop-opacity="0.0"/>
    </radialGradient>
  </defs>

  <g id="background">
    <title>Viewport background, two panel frames, header + footer bands</title>
    <rect x="0" y="0" width="1100" height="1100" fill="#070b10"/>

    <text x="20" y="26" fill="#ff8232" font-size="14" font-weight="bold">SARCOM</text>
    <text x="86" y="26" fill="#6c7f92" font-size="11">KIOSK-004 · selection → recenter + sidebar-replacement detail · 2026-05-19 · single-design v1a · rev 3 (NodeData collapse)</text>
    <text x="20" y="44" fill="#c0ccd8" font-size="11">Lab fixture 800×480 × 2 stacked panels · ADR-015-pending substrate per README.md:36 · uniform detail layout for any node (kind from inventory)</text>

    <!-- Panel A frame -->
    <rect x="20" y="60" width="800" height="480" fill="#0a0f14"/>
    <rect x="20" y="60" width="800" height="30" fill="#070b10"/>
    <rect x="500" y="90" width="320" height="426" fill="#0c1118"/>
    <line x1="500" y1="90" x2="500" y2="516" stroke="#1a2530" stroke-width="1"/>
    <text x="28" y="80" fill="#c0ccd8" font-size="11" font-weight="bold">Panel A — tag-3 selected (no-fix · LAST FIX framing)</text>

    <!-- Panel B frame -->
    <rect x="20" y="580" width="800" height="480" fill="#0a0f14"/>
    <rect x="20" y="580" width="800" height="30" fill="#070b10"/>
    <rect x="500" y="610" width="320" height="426" fill="#0c1118"/>
    <line x1="500" y1="610" x2="500" y2="1036" stroke="#1a2530" stroke-width="1"/>
    <text x="28" y="600" fill="#c0ccd8" font-size="11" font-weight="bold">Panel B — relay-2 selected (overdue · SAME layout as Panel A, different NodeData fields)</text>

    <text x="20" y="1080" fill="#6c7f92" font-size="9">Palette: tools/sarcom-kiosk-lab/src/ui/palette.rs · BLUE #32b4ff · ORANGE #f0a030 · GREEN #40d080 · AMBER #eab308 · RED #ff3c3c · TEXT_BRIGHT #c0ccd8 · TEXT_DIM #6c7f92</text>
    <text x="20" y="1092" fill="#6c7f92" font-size="9">Source-of-truth: KIOSK-004 ticket (post-collapse) · dev-log/2026-05-19-v1a-ui-data-model-collapse-nodedata.md · data.rs NodeData (post-refactor) · markers.rs:32-38, 231-237, 265-302 · pmtiles_map.rs:82-125</text>
  </g>

  <!-- ===================================================================== -->
  <!--                 PANEL A — tag-3 SELECTED (NO-FIX)                     -->
  <!-- ===================================================================== -->

  <g id="map-a">
    <title>Panel A map area at x=20..500, y=90..516. Three-layer basemap per
           pmtiles_map.rs:82-125. tag-3 ghost at last_valid_fix_pos with selection halo.
           Other markers dimmed. Map performs 150 ms eased pan onto tag_visible_pos.</title>

    <!-- L1 basemap -->
    <rect x="20" y="90" width="480" height="426" fill="#0a0f14"/>
    <rect x="20" y="90" width="480" height="426" fill="url(#map-grid-4)"/>
    <path d="M 30 220 Q 130 195 220 220 T 380 235 T 495 225" stroke="#1a2530" stroke-width="1.2" fill="none"/>
    <path d="M 30 320 Q 150 295 250 310 T 420 325 T 495 315" stroke="#1a2530" stroke-width="1" fill="none"/>
    <path d="M 80 410 Q 120 400 160 408 Q 180 415 165 425 Q 130 432 90 425 Z" fill="#0d1620" stroke="#1c3040" stroke-width="0.6"/>

    <!-- L2 hillshade -->
    <g opacity="0.55">
      <rect x="20" y="90" width="480" height="426" fill="url(#hillshade-4)"/>
      <ellipse cx="260" cy="270" rx="220" ry="160" fill="url(#ridge-4)"/>
      <path d="M 30 250 Q 140 220 240 245 T 410 265 T 495 255" stroke="#b8babd" stroke-opacity="0.20" stroke-width="0.8" fill="none"/>
      <path d="M 30 350 Q 160 330 270 345 T 440 358 T 495 348" stroke="#888a8d" stroke-opacity="0.15" stroke-width="0.6" fill="none"/>
    </g>

    <!-- L3 OSM overlays -->
    <g>
      <rect x="148" y="248" width="22" height="14" fill="#3a4a35" fill-opacity="0.45" stroke="#5a7048" stroke-width="0.8"/>
      <rect x="174" y="244" width="14" height="18" fill="#3a4a35" fill-opacity="0.45" stroke="#5a7048" stroke-width="0.8"/>
      <polygon points="220,338 246,332 252,348 230,354" fill="#3a4a35" fill-opacity="0.45" stroke="#5a7048" stroke-width="0.8"/>
    </g>
  </g>

  <g id="markers-a">
    <title>Panel A markers — tag-3 selected (ghost at last_valid_fix_pos, amber halo).
           Other markers dimmed.</title>

    <!-- Dimmed other markers -->
    <g opacity="0.40">
      <circle cx="200" cy="200" r="7" fill="#32b4ff"/>
      <text x="214" y="197" fill="#c0ccd8" font-size="9">tag-1</text>
      <g transform="translate(340,180)">
        <rect x="-2.5" y="-9" width="5" height="18" fill="#f0a030" stroke="#0a0f14" stroke-width="0.6"/>
        <rect x="-9" y="-2.5" width="18" height="5" fill="#f0a030" stroke="#0a0f14" stroke-width="0.6"/>
      </g>
      <text x="354" y="178" fill="#f0a030" font-size="9">relay-1</text>
      <rect x="232" y="460" width="16" height="16" fill="none" stroke="#40d080" stroke-width="2"/>
      <text x="254" y="472" fill="#40d080" font-size="9">gw-0</text>
    </g>

    <!-- tag-3 SELECTED: ghost at last_valid_fix_pos + amber halo -->
    <g>
      <!-- selection halo (amber dashed) -->
      <circle cx="280" cy="380" r="22" fill="none" stroke="#eab308" stroke-opacity="0.55" stroke-width="1.6" stroke-dasharray="2 2"/>
      <!-- ghost dashed outer ring per markers.rs:265-302 -->
      <circle cx="280" cy="380" r="12" fill="none" stroke="#6c7f92" stroke-opacity="0.7" stroke-dasharray="3 3" stroke-width="1.0"/>
      <!-- faded ghost fill -->
      <circle cx="280" cy="380" r="8" fill="#32b4ff" fill-opacity="0.25"/>
      <text x="298" y="376" fill="#c0ccd8" font-size="10" font-weight="bold">tag-3 ◀ selected</text>
      <text x="298" y="388" fill="#eab308" font-size="9">NO FIX · last fix 8 m</text>
    </g>

    <!-- Recenter arrow (150 ms eased pan onto tag_visible_pos) -->
    <g opacity="0.65">
      <path d="M 120 200 Q 200 280 270 370" fill="none" stroke="#ff8232" stroke-width="0.8" stroke-dasharray="3 3"/>
      <polygon points="270,370 263,363 269,358" fill="#ff8232"/>
      <text x="130" y="195" fill="#ff8232" font-size="9">150 ms eased pan onto tag_visible_pos</text>
      <text x="130" y="208" fill="#ff8232" font-size="8" font-style="italic">(markers.rs:32-38 · KIOSK-004:35-36, 87)</text>
    </g>
  </g>

  <g id="sidebar-a">
    <title>Panel A sidebar-replacement detail — UNIFORM LAYOUT (same as Panel B).
           Back row → Node header → State strip → Key/value rows → NOT SHOWN block.
           tag-3 no-fix-specific: LAST FIX · {age} framing scoping lat/lon to
           last_valid_fix_pos, not sentinel current pos.</title>

    <!-- Back row -->
    <rect x="500" y="90" width="320" height="32" fill="#10171f"/>
    <line x1="500" y1="122" x2="820" y2="122" stroke="#1a2530" stroke-width="0.6"/>
    <text x="510" y="111" fill="#c0ccd8" font-size="12">← Back to list</text>

    <!-- Node header: icon + label -->
    <text x="510" y="148" fill="#6c7f92" font-size="9">NODE</text>
    <circle cx="525" cy="178" r="9" fill="#32b4ff" fill-opacity="0.25"/>
    <circle cx="525" cy="178" r="13" fill="none" stroke="#6c7f92" stroke-opacity="0.6" stroke-dasharray="3 3" stroke-width="1"/>
    <text x="555" y="184" fill="#c0ccd8" font-size="22" font-weight="bold">tag-3</text>
    <text x="555" y="200" fill="#6c7f92" font-size="9">inventory.kind = Tag · BLUE icon</text>

    <!-- State strip -->
    <rect x="500" y="214" width="320" height="22" fill="#1a1404"/>
    <text x="510" y="229" fill="#eab308" font-size="11" font-weight="bold">⚠ NO FIX</text>
    <text x="595" y="229" fill="#6c7f92" font-size="10">gps_valid=false</text>

    <!-- Key/value rows. `last frame` age is implicit in the state strip context;
         the LAST FIX scoping label below is what makes lat/lon meaningful. -->
    <text x="510" y="274" fill="#6c7f92" font-size="10">last fix</text>
    <text x="812" y="274" fill="#eab308" font-size="10" text-anchor="end">8 m</text>

    <!-- LAST FIX framing label scoping lat/lon -->
    <rect x="500" y="282" width="320" height="18" fill="#0c1118"/>
    <text x="510" y="295" fill="#eab308" font-size="9" font-style="italic">LAST FIX · 8 m ago — scopes lat/lon below</text>

    <text x="510" y="316" fill="#6c7f92" font-size="10">lat</text>
    <text x="812" y="316" fill="#c0ccd8" font-size="10" text-anchor="end">50.92471° N</text>
    <text x="510" y="334" fill="#6c7f92" font-size="10">lon</text>
    <text x="812" y="334" fill="#c0ccd8" font-size="10" text-anchor="end">5.41856° E</text>

    <text x="510" y="358" fill="#6c7f92" font-size="9" font-style="italic">(last_valid_fix_pos · NOT sentinel current pos · KIOSK-004:50, 91)</text>

    <!-- NOT SHOWN block: protocol-closure only -->
    <rect x="500" y="388" width="320" height="80" fill="#0c1118"/>
    <text x="510" y="403" fill="#6c7f92" font-size="9">NOT SHOWN</text>
    <text x="510" y="419" fill="#6c7f92" font-size="9">RSSI · SNR · hop count</text>
    <text x="510" y="433" fill="#6c7f92" font-size="9" font-style="italic">per ADR-013 §10 — reception-log telemetry</text>
    <text x="510" y="446" fill="#6c7f92" font-size="9" font-style="italic">closed as v2+ deferral. Wire protocol does</text>
    <text x="510" y="459" fill="#6c7f92" font-size="9" font-style="italic">not carry them; data model follows wire.</text>
  </g>

  <g id="bottom-strip-a">
    <title>Panel A bottom strip — existing read-only PMTiles strip per app.rs:283-344.</title>
    <rect x="20" y="516" width="800" height="24" fill="#0a0f14"/>
    <text x="28" y="532" fill="#5a6a7a" font-size="10">read-only · PMTiles · zoom 15</text>
  </g>

  <g id="controls-a">
    <title>Panel A map chrome — compass rose + scale bar only per tickets/README.md:26.</title>
    <g transform="translate(58,128)">
      <circle r="24" fill="#0c1118" fill-opacity="0.65" stroke="#6c7f92" stroke-width="0.7"/>
      <polygon points="0,-16 4,4 0,0 -4,4" fill="#c0ccd8"/>
      <text x="0" y="-8" fill="#c0ccd8" font-size="8" font-weight="bold" text-anchor="middle">N</text>
    </g>
    <g transform="translate(28,496)">
      <rect x="0" y="0" width="80" height="6" fill="none" stroke="#6c7f92" stroke-width="0.8"/>
      <rect x="0" y="0" width="20" height="6" fill="#6c7f92" fill-opacity="0.55"/>
      <rect x="40" y="0" width="20" height="6" fill="#6c7f92" fill-opacity="0.55"/>
      <text x="0" y="18" fill="#6c7f92" font-size="9">0</text>
      <text x="80" y="18" fill="#6c7f92" font-size="9" text-anchor="end">250 m</text>
    </g>
  </g>

  <!-- ===================================================================== -->
  <!--                PANEL B — relay-2 SELECTED (OVERDUE)                   -->
  <!-- ===================================================================== -->

  <g id="map-b">
    <title>Panel B map area at x=20..500, y=610..1036. Same three-layer basemap as
           Panel A. relay-2 selected with amber halo around the cross marker.</title>

    <!-- L1 basemap -->
    <rect x="20" y="610" width="480" height="426" fill="#0a0f14"/>
    <rect x="20" y="610" width="480" height="426" fill="url(#map-grid-4)"/>
    <path d="M 30 740 Q 130 715 220 740 T 380 755 T 495 745" stroke="#1a2530" stroke-width="1.2" fill="none"/>
    <path d="M 30 840 Q 150 815 250 830 T 420 845 T 495 835" stroke="#1a2530" stroke-width="1" fill="none"/>
    <path d="M 80 930 Q 120 920 160 928 Q 180 935 165 945 Q 130 952 90 945 Z" fill="#0d1620" stroke="#1c3040" stroke-width="0.6"/>

    <!-- L2 hillshade -->
    <g opacity="0.55">
      <rect x="20" y="610" width="480" height="426" fill="url(#hillshade-4)"/>
      <ellipse cx="260" cy="790" rx="220" ry="160" fill="url(#ridge-4)"/>
      <path d="M 30 770 Q 140 740 240 765 T 410 785 T 495 775" stroke="#b8babd" stroke-opacity="0.20" stroke-width="0.8" fill="none"/>
      <path d="M 30 870 Q 160 850 270 865 T 440 878 T 495 868" stroke="#888a8d" stroke-opacity="0.15" stroke-width="0.6" fill="none"/>
    </g>

    <!-- L3 OSM overlays -->
    <g>
      <rect x="148" y="768" width="22" height="14" fill="#3a4a35" fill-opacity="0.45" stroke="#5a7048" stroke-width="0.8"/>
      <rect x="174" y="764" width="14" height="18" fill="#3a4a35" fill-opacity="0.45" stroke="#5a7048" stroke-width="0.8"/>
      <polygon points="220,858 246,852 252,868 230,874" fill="#3a4a35" fill-opacity="0.45" stroke="#5a7048" stroke-width="0.8"/>
    </g>
  </g>

  <g id="markers-b">
    <title>Panel B markers — relay-2 selected (overdue, amber halo around cross).
           Other markers dimmed.</title>

    <!-- Dimmed other markers -->
    <g opacity="0.40">
      <circle cx="200" cy="720" r="7" fill="#32b4ff"/>
      <text x="214" y="717" fill="#c0ccd8" font-size="9">tag-1</text>
      <g transform="translate(220,830)">
        <rect x="-2.5" y="-9" width="5" height="18" fill="#f0a030" stroke="#0a0f14" stroke-width="0.6"/>
        <rect x="-9" y="-2.5" width="18" height="5" fill="#f0a030" stroke="#0a0f14" stroke-width="0.6"/>
      </g>
      <text x="234" y="828" fill="#f0a030" font-size="9">relay-1</text>
      <rect x="232" y="980" width="16" height="16" fill="none" stroke="#40d080" stroke-width="2"/>
      <text x="254" y="992" fill="#40d080" font-size="9">gw-0</text>
    </g>

    <!-- relay-2 SELECTED: amber overdue cross + halo -->
    <g>
      <circle cx="400" cy="870" r="22" fill="none" stroke="#eab308" stroke-opacity="0.55" stroke-width="1.6" stroke-dasharray="2 2"/>
      <g transform="translate(400,870)">
        <rect x="-2.5" y="-9" width="5" height="18" fill="#eab308" stroke="#0a0f14" stroke-width="0.6"/>
        <rect x="-9" y="-2.5" width="18" height="5" fill="#eab308" stroke="#0a0f14" stroke-width="0.6"/>
      </g>
      <text x="416" y="866" fill="#eab308" font-size="10" font-weight="bold">relay-2 ◀ selected</text>
      <text x="416" y="878" fill="#eab308" font-size="9">overdue · 65 m</text>
    </g>

    <!-- Recenter arrow -->
    <g opacity="0.65">
      <path d="M 250 710 Q 320 790 390 860" fill="none" stroke="#ff8232" stroke-width="0.8" stroke-dasharray="3 3"/>
      <polygon points="390,860 383,853 389,848" fill="#ff8232"/>
      <text x="260" y="705" fill="#ff8232" font-size="9">150 ms eased pan onto relay pos</text>
    </g>
  </g>

  <g id="sidebar-b">
    <title>Panel B sidebar-replacement detail — IDENTICAL LAYOUT TO PANEL A.
           Different NodeData fields populated (relay-2 is gps_valid=true, no
           LAST FIX framing; no_battery_low so no battery row). Same NOT SHOWN block.</title>

    <!-- Back row -->
    <rect x="500" y="610" width="320" height="32" fill="#10171f"/>
    <line x1="500" y1="642" x2="820" y2="642" stroke="#1a2530" stroke-width="0.6"/>
    <text x="510" y="631" fill="#c0ccd8" font-size="12">← Back to list</text>

    <!-- Node header: icon + label -->
    <text x="510" y="668" fill="#6c7f92" font-size="9">NODE</text>
    <g transform="translate(525,698)">
      <rect x="-2" y="-7" width="4" height="14" fill="#f0a030"/>
      <rect x="-7" y="-2" width="14" height="4" fill="#f0a030"/>
    </g>
    <text x="555" y="704" fill="#c0ccd8" font-size="22" font-weight="bold">relay-2</text>
    <text x="555" y="720" fill="#6c7f92" font-size="9">inventory.kind = Relay · ORANGE icon</text>

    <!-- State strip -->
    <rect x="500" y="734" width="320" height="22" fill="#1a1404"/>
    <text x="510" y="749" fill="#eab308" font-size="11" font-weight="bold">⚠ OVERDUE</text>
    <text x="595" y="749" fill="#6c7f92" font-size="10">65 m (> 3600 s)</text>

    <!-- Key/value rows: SAME shape as Panel A, different fields populated.
         No `last frame` row — age carried in state strip. -->

    <text x="510" y="800" fill="#6c7f92" font-size="10">lat</text>
    <text x="812" y="800" fill="#c0ccd8" font-size="10" text-anchor="end">50.92414° N</text>
    <text x="510" y="818" fill="#6c7f92" font-size="10">lon</text>
    <text x="812" y="818" fill="#c0ccd8" font-size="10" text-anchor="end">5.41972° E</text>

    <text x="510" y="848" fill="#6c7f92" font-size="9" font-style="italic">(relay gps_valid=true · current pos is the last fix · no LAST FIX framing needed)</text>

    <!-- NOT SHOWN block — IDENTICAL to Panel A -->
    <rect x="500" y="878" width="320" height="80" fill="#0c1118"/>
    <text x="510" y="893" fill="#6c7f92" font-size="9">NOT SHOWN</text>
    <text x="510" y="909" fill="#6c7f92" font-size="9">RSSI · SNR · hop count</text>
    <text x="510" y="923" fill="#6c7f92" font-size="9" font-style="italic">per ADR-013 §10 — reception-log telemetry</text>
    <text x="510" y="936" fill="#6c7f92" font-size="9" font-style="italic">closed as v2+ deferral. Wire protocol does</text>
    <text x="510" y="949" fill="#6c7f92" font-size="9" font-style="italic">not carry them; data model follows wire.</text>
  </g>

  <g id="bottom-strip-b">
    <title>Panel B bottom strip — existing read-only PMTiles strip per app.rs:283-344.</title>
    <rect x="20" y="1036" width="800" height="24" fill="#0a0f14"/>
    <text x="28" y="1052" fill="#5a6a7a" font-size="10">read-only · PMTiles · zoom 15</text>
  </g>

  <g id="controls-b">
    <title>Panel B map chrome — same as Panel A.</title>
    <g transform="translate(58,648)">
      <circle r="24" fill="#0c1118" fill-opacity="0.65" stroke="#6c7f92" stroke-width="0.7"/>
      <polygon points="0,-16 4,4 0,0 -4,4" fill="#c0ccd8"/>
      <text x="0" y="-8" fill="#c0ccd8" font-size="8" font-weight="bold" text-anchor="middle">N</text>
    </g>
    <g transform="translate(28,1016)">
      <rect x="0" y="0" width="80" height="6" fill="none" stroke="#6c7f92" stroke-width="0.8"/>
      <rect x="0" y="0" width="20" height="6" fill="#6c7f92" fill-opacity="0.55"/>
      <rect x="40" y="0" width="20" height="6" fill="#6c7f92" fill-opacity="0.55"/>
      <text x="0" y="18" fill="#6c7f92" font-size="9">0</text>
      <text x="80" y="18" fill="#6c7f92" font-size="9" text-anchor="end">250 m</text>
    </g>
  </g>

  <g id="annotations">
    <title>Marginal callouts at x=830..1080. Layer L1/L2/L3 anchors + uniformity proof.</title>

    <!-- Layer anchors Panel A -->
    <circle cx="270" cy="200" r="7" fill="#070b10" stroke="#ff8232" stroke-width="0.8"/>
    <text x="270" y="203" fill="#ff8232" font-size="9" text-anchor="middle">L1</text>
    <circle cx="380" cy="290" r="7" fill="#070b10" stroke="#ff8232" stroke-width="0.8"/>
    <text x="380" y="293" fill="#ff8232" font-size="9" text-anchor="middle">L2</text>
    <circle cx="160" cy="255" r="7" fill="#070b10" stroke="#ff8232" stroke-width="0.8"/>
    <text x="160" y="258" fill="#ff8232" font-size="9" text-anchor="middle">L3</text>
    <!-- Layer anchors Panel B -->
    <circle cx="270" cy="720" r="6" fill="#070b10" stroke="#ff8232" stroke-width="0.6"/>
    <text x="270" y="723" fill="#ff8232" font-size="8" text-anchor="middle">L1</text>
    <circle cx="380" cy="810" r="6" fill="#070b10" stroke="#ff8232" stroke-width="0.6"/>
    <text x="380" y="813" fill="#ff8232" font-size="8" text-anchor="middle">L2</text>
    <circle cx="160" cy="775" r="6" fill="#070b10" stroke="#ff8232" stroke-width="0.6"/>
    <text x="160" y="778" fill="#ff8232" font-size="8" text-anchor="middle">L3</text>

    <!-- Numbered callouts in Panel A -->
    <circle cx="488" cy="178" r="7" fill="#070b10" stroke="#ff8232" stroke-width="0.8"/>
    <text x="488" y="181" fill="#ff8232" font-size="9" text-anchor="middle">1</text>
    <circle cx="488" cy="225" r="7" fill="#070b10" stroke="#ff8232" stroke-width="0.8"/>
    <text x="488" y="228" fill="#ff8232" font-size="9" text-anchor="middle">2</text>
    <circle cx="488" cy="290" r="7" fill="#070b10" stroke="#ff8232" stroke-width="0.8"/>
    <text x="488" y="293" fill="#ff8232" font-size="9" text-anchor="middle">3</text>
    <circle cx="488" cy="420" r="7" fill="#070b10" stroke="#ff8232" stroke-width="0.8"/>
    <text x="488" y="423" fill="#ff8232" font-size="9" text-anchor="middle">4</text>

    <!-- Right margin text column -->
    <text x="836" y="80" fill="#c0ccd8" font-size="10" font-weight="bold">Uniform detail layout (post-collapse)</text>
    <text x="836" y="94" fill="#6c7f92" font-size="9">One NodeData shape for every node.</text>
    <text x="836" y="107" fill="#6c7f92" font-size="9">Same detail layout for tag / relay /</text>
    <text x="836" y="120" fill="#6c7f92" font-size="9">gateway. Icon glyph + colour from</text>
    <text x="836" y="133" fill="#6c7f92" font-size="9">inventory.kind lookup, not from a</text>
    <text x="836" y="146" fill="#6c7f92" font-size="9">per-kind layout branch.</text>
    <text x="836" y="159" fill="#6c7f92" font-size="9" font-style="italic">dev-log/2026-05-19-v1a-ui-data-model-collapse-nodedata.md</text>

    <text x="836" y="186" fill="#ff8232" font-size="10" font-weight="bold">1 · Node header</text>
    <text x="836" y="200" fill="#6c7f92" font-size="9">kind-icon glyph (from inventory)</text>
    <text x="836" y="213" fill="#6c7f92" font-size="9">+ {label}. Same shape Panel B.</text>

    <text x="836" y="236" fill="#ff8232" font-size="10" font-weight="bold">2 · State strip</text>
    <text x="836" y="250" fill="#6c7f92" font-size="9">worst-priority POSITION-derived state.</text>
    <text x="836" y="263" fill="#6c7f92" font-size="9">DISTRESS &gt; NO FIX &gt; STALE &gt; HEALTHY.</text>
    <text x="836" y="276" fill="#6c7f92" font-size="9">NO RTC ok / RTC unset chrome — gateway-</text>
    <text x="836" y="289" fill="#6c7f92" font-size="9">self status deferred per KIOSK-005.</text>

    <text x="836" y="312" fill="#ff8232" font-size="10" font-weight="bold">3 · LAST FIX framing (no-fix only)</text>
    <text x="836" y="326" fill="#6c7f92" font-size="9">when !gps_valid: scopes lat/lon below</text>
    <text x="836" y="339" fill="#6c7f92" font-size="9">to last_valid_fix_pos, not sentinel.</text>
    <text x="836" y="352" fill="#6c7f92" font-size="9" font-style="italic">markers.rs:32-38 · KIOSK-004:50</text>

    <text x="836" y="378" fill="#ff8232" font-size="10" font-weight="bold">4 · NOT SHOWN block</text>
    <text x="836" y="392" fill="#6c7f92" font-size="9">RSSI / SNR / hop count — protocol</text>
    <text x="836" y="405" fill="#6c7f92" font-size="9">closure per ADR-013 §10 (v2+ deferral).</text>
    <text x="836" y="418" fill="#6c7f92" font-size="9">IDENTICAL in Panel B — proves the block</text>
    <text x="836" y="431" fill="#6c7f92" font-size="9">applies to ANY node, not relay-specific.</text>
    <text x="836" y="444" fill="#6c7f92" font-size="9" font-style="italic">No sim-fixture-gap NOT SHOWN entries.</text>

    <!-- Panel B annotations -->
    <text x="836" y="476" fill="#c0ccd8" font-size="10" font-weight="bold">Panel B — relay-2 selected</text>
    <text x="836" y="490" fill="#6c7f92" font-size="9">SAME layout. Only differences:</text>
    <text x="836" y="503" fill="#6c7f92" font-size="9">· ORANGE icon (inventory.kind=Relay)</text>
    <text x="836" y="516" fill="#6c7f92" font-size="9">· state strip = ⚠ OVERDUE</text>
    <text x="836" y="529" fill="#6c7f92" font-size="9">· state strip age = 65 m (vs 30 s)</text>
    <text x="836" y="542" fill="#6c7f92" font-size="9">· no LAST FIX framing (gps_valid=true)</text>
    <text x="836" y="555" fill="#6c7f92" font-size="9">· lat/lon = current pos (not last_valid)</text>
    <text x="836" y="568" fill="#6c7f92" font-size="9">· NOT SHOWN block = IDENTICAL.</text>

    <text x="836" y="595" fill="#c0ccd8" font-size="10" font-weight="bold">Gateway (formerly Panel C)</text>
    <text x="836" y="609" fill="#6c7f92" font-size="9">Gateway-self detail (battery / RTC /</text>
    <text x="836" y="622" fill="#6c7f92" font-size="9">render-tick) DEFERRED from v1a per</text>
    <text x="836" y="635" fill="#6c7f92" font-size="9">tickets/KIOSK-005-gateway-status-surface.md.</text>
    <text x="836" y="648" fill="#6c7f92" font-size="9">In v1a a gateway node renders the SAME</text>
    <text x="836" y="661" fill="#6c7f92" font-size="9">uniform detail layout: header (■ GREEN +</text>
    <text x="836" y="674" fill="#6c7f92" font-size="9">label), state strip ● HEALTHY, last_frame</text>
    <text x="836" y="687" fill="#6c7f92" font-size="9">row reads "— (local)" since gateway is</text>
    <text x="836" y="700" fill="#6c7f92" font-size="9">local, lat/lon. No extra chrome.</text>

    <text x="836" y="730" fill="#c0ccd8" font-size="10" font-weight="bold">Map basemap composition</text>
    <text x="836" y="744" fill="#6c7f92" font-size="9">(per pmtiles_map.rs:82-125; z-order:</text>
    <text x="836" y="757" fill="#6c7f92" font-size="9">basemap → hillshade → OSM → markers)</text>

    <text x="836" y="784" fill="#ff8232" font-size="10" font-weight="bold">L1 · PMTiles basemap</text>
    <text x="836" y="797" fill="#6c7f92" font-size="9" font-style="italic">pmtiles_map.rs:61, 73, 106</text>
    <text x="836" y="818" fill="#ff8232" font-size="10" font-weight="bold">L2 · LIDAR hillshade @ 0.5</text>
    <text x="836" y="831" fill="#6c7f92" font-size="9" font-style="italic">pmtiles_map.rs:25, 64-74, 107-113</text>
    <text x="836" y="852" fill="#ff8232" font-size="10" font-weight="bold">L3 · OSM XML overlays</text>
    <text x="836" y="865" fill="#6c7f92" font-size="9" font-style="italic">pmtiles_map.rs:115-125 · region.rs:25-71</text>

    <text x="836" y="895" fill="#c0ccd8" font-size="10" font-weight="bold">Non-goals</text>
    <text x="836" y="909" fill="#6c7f92" font-size="9">no overlay / slide-in / popover / banner</text>
    <text x="836" y="922" fill="#6c7f92" font-size="9">no tap-outside dismiss; back row only</text>
    <text x="836" y="935" fill="#6c7f92" font-size="9">no follow-mode lock (one-shot recenter)</text>
    <text x="836" y="948" fill="#6c7f92" font-size="9">no new NodeData fields</text>
    <text x="836" y="961" fill="#6c7f92" font-size="9">no gateway-self status (KIOSK-005 def.)</text>
    <text x="836" y="974" fill="#6c7f92" font-size="9" font-style="italic">ADR-007:38-46 · SPIKE-001 closed strict</text>
  </g>
</svg>
