<?xml version="1.0" encoding="UTF-8"?>
<svg xmlns="http://www.w3.org/2000/svg" viewBox="0 0 1100 1100" font-family="Menlo, Consolas, monospace">
  <!--
    SARCOM KIOSK-006 — SOS alerting: persistent strip + background pulse.
    Single-design v1a mockup. Two stacked 800x480 lab fixtures.
    Map areas render three layers per pmtiles_map.rs:82-125 (basemap + LIDAR
    hillshade + OSM XML overlays). Strip is FULL-WIDTH SOS state when active
    per KIOSK-006:33, 56-64. No zones. No coord readout. No crosshair.
    Strip text exact: `DISTRESS · {label} · last frame {age} · ack at tag`.
  -->

  <defs>
    <radialGradient id="pulse-sos" cx="50%" cy="50%" r="50%">
      <stop offset="55%" stop-color="#ff3c3c" stop-opacity="0"/>
      <stop offset="82%" stop-color="#ff3c3c" stop-opacity="0.7"/>
      <stop offset="100%" stop-color="#ff3c3c" stop-opacity="0"/>
    </radialGradient>
    <pattern id="map-grid" width="40" height="40" patternUnits="userSpaceOnUse">
      <path d="M 40 0 L 0 0 0 40" fill="none" stroke="#1a2530" stroke-width="0.5"/>
    </pattern>
    <linearGradient id="hillshade-6" x1="0%" y1="0%" x2="100%" y2="100%">
      <stop offset="0%" stop-color="rgb(180,180,185)" stop-opacity="0.0"/>
      <stop offset="35%" stop-color="rgb(200,200,205)" stop-opacity="0.30"/>
      <stop offset="65%" stop-color="rgb(70,70,75)" stop-opacity="0.36"/>
      <stop offset="100%" stop-color="rgb(40,40,45)" stop-opacity="0.16"/>
    </linearGradient>
    <radialGradient id="ridge-6" cx="55%" cy="40%" r="55%">
      <stop offset="0%" stop-color="rgb(210,210,215)" stop-opacity="0.38"/>
      <stop offset="55%" stop-color="rgb(150,150,155)" stop-opacity="0.20"/>
      <stop offset="100%" stop-color="rgb(40,40,45)" stop-opacity="0.0"/>
    </radialGradient>
  </defs>

  <g id="background">
    <title>Viewport background, two panel frames, header + footer bands</title>
    <rect x="0" y="0" width="1100" height="1100" fill="#070b10"/>

    <text x="20" y="26" fill="#ff8232" font-size="14" font-weight="bold">SARCOM</text>
    <text x="86" y="26" fill="#6c7f92" font-size="11">KIOSK-006 · SOS alerting (persistent strip + background pulse) · 2026-05-19 · single-design v1a · rev 2 (three-layer basemap)</text>
    <text x="20" y="44" fill="#c0ccd8" font-size="11">Lab fixture 800x480 × 2 stacked panels · ADR-015-pending substrate per README.md:36</text>

    <rect x="20" y="60" width="800" height="480" fill="#0a0f14"/>
    <rect x="20" y="60" width="800" height="30" fill="#070b10"/>
    <rect x="500" y="90" width="320" height="426" fill="#0c1118"/>
    <line x1="500" y1="90" x2="500" y2="516" stroke="#1a2530" stroke-width="1"/>
    <text x="28" y="80" fill="#c0ccd8" font-size="11" font-weight="bold">Panel A — single SOS (tag-2 in distress)</text>

    <rect x="20" y="580" width="800" height="480" fill="#0a0f14"/>
    <rect x="20" y="580" width="800" height="30" fill="#070b10"/>
    <rect x="500" y="610" width="320" height="426" fill="#0c1118"/>
    <line x1="500" y1="610" x2="500" y2="1036" stroke="#1a2530" stroke-width="1"/>
    <text x="28" y="600" fill="#c0ccd8" font-size="11" font-weight="bold">Panel B — multi-SOS (tag-2 + tag-5 both in distress; tag-5 most recent)</text>

    <text x="20" y="1086" fill="#6c7f92" font-size="9">Palette: tools/sarcom-kiosk-lab/src/ui/palette.rs · SOS RED fill rgb(160,28,28) per app.rs:245 · TEXT_BRIGHT #c0ccd8 · TEXT_DIM #6c7f92</text>
    <text x="20" y="1098" fill="#6c7f92" font-size="9">Source of truth: tickets/KIOSK-006-sos-alerting.md:33 (height unchanged), :42 (text format), :51-54 (most-recent only), :56-64 (NOT in scope) · ADR-007:46 (non-goal: no acknowledgement flow at the gateway; acknowledgement happens at the tag per ADR-010) · Map basemap per pmtiles_map.rs:82-125</text>
  </g>

  <!-- ===================================================================== -->
  <!--                          PANEL A — SINGLE SOS                         -->
  <!-- ===================================================================== -->

  <g id="map">
    <title>Panel A map area. Three layers (basemap + hillshade + OSM overlays) per
           pmtiles_map.rs:82-125. tag-2 SOS with pulse ring per markers.rs:216-227.</title>
    <!-- L1 basemap -->
    <rect x="20" y="90" width="480" height="426" fill="#0a0f14"/>
    <rect x="20" y="90" width="480" height="426" fill="url(#map-grid)"/>
    <path d="M 30 220 Q 130 180 220 215 T 380 230 T 495 215" stroke="#1a2530" stroke-width="1.2" fill="none"/>
    <path d="M 30 320 Q 150 295 250 310 T 420 325 T 495 315" stroke="#1a2530" stroke-width="1" fill="none"/>
    <path d="M 80 410 Q 120 400 160 408 Q 180 415 165 425 Q 130 432 90 425 Z" fill="#0d1620" stroke="#1c3040" stroke-width="0.6"/>

    <!-- L2 hillshade -->
    <g opacity="0.55">
      <rect x="20" y="90" width="480" height="426" fill="url(#hillshade-6)"/>
      <ellipse cx="260" cy="270" rx="220" ry="160" fill="url(#ridge-6)"/>
      <path d="M 30 250 Q 140 220 240 245 T 410 265 T 495 255" stroke="#b8babd" stroke-opacity="0.22" stroke-width="0.8" fill="none"/>
      <path d="M 30 350 Q 160 330 270 345 T 440 358 T 495 348" stroke="#888a8d" stroke-opacity="0.16" stroke-width="0.6" fill="none"/>
    </g>

    <!-- L3 OSM overlays -->
    <g>
      <rect x="148" y="248" width="22" height="14" fill="#3a4a35" fill-opacity="0.45" stroke="#5a7048" stroke-width="0.8"/>
      <rect x="174" y="244" width="14" height="18" fill="#3a4a35" fill-opacity="0.45" stroke="#5a7048" stroke-width="0.8"/>
      <path d="M 90 460 L 150 420 L 210 380 L 270 340 L 330 300 L 370 250 L 410 200"
            stroke="#c0a060" stroke-width="1.1" stroke-dasharray="3 3" fill="none" opacity="0.75"/>
    </g>

    <!-- Non-SOS markers reduced -->
    <g opacity="0.55">
      <circle cx="160" cy="220" r="14" fill="none" stroke="#32b4ff" stroke-opacity="0.2" stroke-width="0.5"/>
      <circle cx="160" cy="220" r="7" fill="#32b4ff"/>
      <text x="174" y="217" fill="#c0ccd8" font-size="10">tag-1</text>
      <text x="174" y="229" fill="#5a6a7a" font-size="8">12 s</text>

      <circle cx="100" cy="300" r="6" fill="#6b7280" fill-opacity="0.7"/>
      <text x="112" y="303" fill="#8a96a4" font-size="10">tag-4</text>

      <g transform="translate(380,250)">
        <rect x="-2.5" y="-9" width="5" height="18" fill="#f0a030"/>
        <rect x="-9" y="-2.5" width="18" height="5" fill="#f0a030"/>
      </g>
      <text x="394" y="247" fill="#f0a030" font-size="10">relay-1</text>

      <rect x="252" y="392" width="14" height="14" fill="none" stroke="#40d080" stroke-width="1.5"/>
      <text x="272" y="404" fill="#40d080" font-size="10">gw-0</text>
    </g>

    <!-- tag-2 SOS -->
    <g>
      <circle cx="280" cy="290" r="32" fill="url(#pulse-sos)">
        <animate attributeName="r" values="24;36;24" dur="1.2s" repeatCount="indefinite"/>
        <animate attributeName="opacity" values="0.7;0.3;0.7" dur="1.2s" repeatCount="indefinite"/>
      </circle>
      <circle cx="280" cy="290" r="18" fill="none" stroke="#ff3c3c" stroke-opacity="0.6" stroke-width="2"/>
      <circle cx="280" cy="290" r="9" fill="#ff3c3c"/>
      <text x="296" y="287" fill="#c0ccd8" font-size="11" font-weight="bold">tag-2</text>
      <text x="296" y="299" fill="#ff3c3c" font-size="9" font-weight="bold">SOS · 42 s</text>
    </g>
  </g>

  <g id="markers">
    <title>Markers folded into #map for adjacency.</title>
  </g>

  <g id="sidebar">
    <title>Sidebar abstracted in Panel A. KIOSK-003 owns row redesign detail.</title>
    <line x1="500" y1="138" x2="820" y2="138" stroke="#1a2530" stroke-width="0.5"/>
    <line x1="500" y1="186" x2="820" y2="186" stroke="#1a2530" stroke-width="0.5"/>
    <line x1="500" y1="234" x2="820" y2="234" stroke="#1a2530" stroke-width="0.5"/>
    <line x1="500" y1="282" x2="820" y2="282" stroke="#1a2530" stroke-width="0.5"/>
    <line x1="500" y1="330" x2="820" y2="330" stroke="#1a2530" stroke-width="0.5"/>
    <line x1="500" y1="378" x2="820" y2="378" stroke="#1a2530" stroke-width="0.5"/>
    <text x="510" y="115" fill="#ff3c3c" font-size="10" font-weight="bold">DISTRESS · 1</text>
    <text x="510" y="130" fill="#ff3c3c" font-size="11" font-weight="bold">🔴 SOS · tag-2 · 42 s</text>
    <text x="510" y="167" fill="#6c7f92" font-size="9">NODES · 4</text>
    <text x="510" y="183" fill="#5a6a7a" font-size="10">● tag-1 · 12 s</text>
    <text x="510" y="231" fill="#5a6a7a" font-size="10">● tag-4 · stale · 12 m</text>
    <text x="510" y="279" fill="#5a6a7a" font-size="10">● relay-1 · POSITION 14 m</text>
    <text x="510" y="327" fill="#40d080" font-size="10">● gw-0 · RTC ok</text>
    <text x="510" y="410" fill="#5a6a7a" font-size="9" font-style="italic">sidebar abstracted ·</text>
    <text x="510" y="423" fill="#5a6a7a" font-size="9" font-style="italic">KIOSK-003 owns detail</text>
  </g>

  <g id="bottom-strip">
    <title>FULL-WIDTH SOS strip per KIOSK-006:33, 56-64. 800 px × 24 px tall. Text exact
           per :42. No zones. No coord readout. Background pulse 1.2 s synchronised
           with marker pulse-ring.</title>
    <rect x="20" y="516" width="800" height="24" fill="rgb(160,28,28)">
      <animate attributeName="fill" values="rgb(160,28,28);rgb(112,20,20);rgb(160,28,28)" dur="1.2s" repeatCount="indefinite"/>
    </rect>
    <text x="420" y="533" fill="#ffffff" font-size="13" font-weight="bold" text-anchor="middle">DISTRESS · tag-2 · last frame 42s · ack at tag</text>
  </g>

  <g id="controls">
    <title>Panel A map chrome: compass rose + scale bar only. No floating buttons. No crosshair.</title>
    <text x="32" y="105" fill="#5a6a7a" font-size="9">[compass]</text>
    <text x="32" y="508" fill="#5a6a7a" font-size="9">[scale bar]</text>
  </g>

  <g id="annotations">
    <title>Annotations for Panels A and B.</title>

    <text x="836" y="84" fill="#c0ccd8" font-size="10" font-weight="bold">Panel A — single SOS</text>

    <circle cx="488" cy="528" r="7" fill="#070b10" stroke="#ff8232" stroke-width="0.8"/>
    <text x="488" y="531" fill="#ff8232" font-size="9" text-anchor="middle">1</text>
    <text x="836" y="106" fill="#ff8232" font-size="10" font-weight="bold">1 · full-width SOS strip</text>
    <text x="836" y="121" fill="#6c7f92" font-size="9">800 × 24 px · spans full fixture</text>
    <text x="836" y="134" fill="#6c7f92" font-size="9">width when SOS active.</text>
    <text x="836" y="147" fill="#6c7f92" font-size="9">NO left/right zone split.</text>
    <text x="836" y="160" fill="#6c7f92" font-size="9">NO coord-readout zone.</text>
    <text x="836" y="173" fill="#6c7f92" font-size="9">Height unchanged from current.</text>
    <text x="836" y="186" fill="#6c7f92" font-size="9" font-style="italic">KIOSK-006:33, 56-64, 80</text>

    <text x="836" y="208" fill="#ff8232" font-size="10" font-weight="bold">2 · strip text · exact format</text>
    <text x="836" y="223" fill="#6c7f92" font-size="9">DISTRESS · {label} · last frame</text>
    <text x="836" y="236" fill="#6c7f92" font-size="9">{age} · ack at tag</text>
    <text x="836" y="249" fill="#6c7f92" font-size="9">13 pt bold white · size unchanged.</text>
    <text x="836" y="262" fill="#6c7f92" font-size="9">`flags.SOS=1` removed.</text>
    <text x="836" y="275" fill="#6c7f92" font-size="9">`since {wall}` removed.</text>
    <text x="836" y="288" fill="#6c7f92" font-size="9">`ack at tag` (no "the") preserved —</text>
    <text x="836" y="301" fill="#6c7f92" font-size="9">tag-side button per ADR-010.</text>
    <text x="836" y="314" fill="#6c7f92" font-size="9" font-style="italic">KIOSK-006:42, 47, 82 · ADR-010</text>

    <text x="836" y="336" fill="#ff8232" font-size="10" font-weight="bold">3 · background pulse</text>
    <text x="836" y="351" fill="#6c7f92" font-size="9">rgb(160,28,28) → rgb(112,20,20)</text>
    <text x="836" y="364" fill="#6c7f92" font-size="9">→ rgb(160,28,28) · 1.2 s period</text>
    <text x="836" y="377" fill="#6c7f92" font-size="9">synchronised with marker pulse-ring</text>
    <text x="836" y="390" fill="#6c7f92" font-size="9">at markers.rs:216-227 · aesthetic on</text>
    <text x="836" y="403" fill="#6c7f92" font-size="9">existing strip · NO new surface.</text>
    <text x="836" y="416" fill="#6c7f92" font-size="9" font-style="italic">KIOSK-006:34-35, 81, 84</text>

    <circle cx="270" cy="285" r="10" fill="none" stroke="#ff8232" stroke-width="0.8"/>
    <text x="270" y="288" fill="#ff8232" font-size="9" text-anchor="middle">4</text>
    <text x="836" y="438" fill="#ff8232" font-size="10" font-weight="bold">4 · marker pulse-ring</text>
    <text x="836" y="453" fill="#6c7f92" font-size="9">red pulse ring around tag-2;</text>
    <text x="836" y="466" fill="#6c7f92" font-size="9">strip pulse coordinates with this beat.</text>
    <text x="836" y="479" fill="#6c7f92" font-size="9" font-style="italic">markers.rs:216-227</text>

    <!-- Layer anchors in Panel A -->
    <circle cx="280" cy="200" r="7" fill="#070b10" stroke="#ff8232" stroke-width="0.8"/>
    <text x="280" y="203" fill="#ff8232" font-size="9" text-anchor="middle">L1</text>
    <circle cx="390" cy="320" r="7" fill="#070b10" stroke="#ff8232" stroke-width="0.8"/>
    <text x="390" y="323" fill="#ff8232" font-size="9" text-anchor="middle">L2</text>
    <circle cx="160" cy="255" r="7" fill="#070b10" stroke="#ff8232" stroke-width="0.8"/>
    <text x="160" y="258" fill="#ff8232" font-size="9" text-anchor="middle">L3</text>

    <text x="836" y="501" fill="#c0ccd8" font-size="10" font-weight="bold">What is NOT rendered (non-goal)</text>
    <text x="836" y="516" fill="#6c7f92" font-size="9">NO banner. NO acknowledge button (non-goal).</text>
    <text x="836" y="529" fill="#6c7f92" font-size="9">NO dismiss affordance. NO modal.</text>
    <text x="836" y="542" fill="#6c7f92" font-size="9">NO popover. NO top-anchored surface.</text>
    <text x="836" y="555" fill="#6c7f92" font-size="9">NO tap targets on the strip.</text>
    <text x="836" y="568" fill="#6c7f92" font-size="9">NO crosshair (KIOSK-002 deferred).</text>
    <text x="836" y="581" fill="#6c7f92" font-size="9" font-style="italic">KIOSK-006:56-64, 83 · ADR-007:46</text>
  </g>

  <!-- ===================================================================== -->
  <!--                          PANEL B — MULTI-SOS                          -->
  <!-- ===================================================================== -->

  <g id="map-b">
    <title>Panel B map. Three layers. tag-2 + tag-5 both SOS; tag-5 most recent.</title>
    <rect x="20" y="610" width="480" height="426" fill="#0a0f14"/>
    <rect x="20" y="610" width="480" height="426" fill="url(#map-grid)"/>
    <path d="M 30 740 Q 130 700 220 735 T 380 750 T 495 735" stroke="#1a2530" stroke-width="1.2" fill="none"/>
    <path d="M 30 840 Q 150 815 250 830 T 420 845 T 495 835" stroke="#1a2530" stroke-width="1" fill="none"/>
    <path d="M 80 930 Q 120 920 160 928 Q 180 935 165 945 Q 130 952 90 945 Z" fill="#0d1620" stroke="#1c3040" stroke-width="0.6"/>

    <g opacity="0.55">
      <rect x="20" y="610" width="480" height="426" fill="url(#hillshade-6)"/>
      <ellipse cx="260" cy="790" rx="220" ry="160" fill="url(#ridge-6)"/>
      <path d="M 30 770 Q 140 740 240 765 T 410 785 T 495 775" stroke="#b8babd" stroke-opacity="0.22" stroke-width="0.8" fill="none"/>
      <path d="M 30 870 Q 160 850 270 865 T 440 878 T 495 868" stroke="#888a8d" stroke-opacity="0.16" stroke-width="0.6" fill="none"/>
    </g>

    <g>
      <rect x="148" y="768" width="22" height="14" fill="#3a4a35" fill-opacity="0.45" stroke="#5a7048" stroke-width="0.8"/>
      <rect x="174" y="764" width="14" height="18" fill="#3a4a35" fill-opacity="0.45" stroke="#5a7048" stroke-width="0.8"/>
      <path d="M 90 980 L 150 940 L 210 900 L 270 860 L 330 820 L 370 770 L 410 720"
            stroke="#c0a060" stroke-width="1.1" stroke-dasharray="3 3" fill="none" opacity="0.75"/>
    </g>

    <g opacity="0.55">
      <circle cx="160" cy="740" r="14" fill="none" stroke="#32b4ff" stroke-opacity="0.2" stroke-width="0.5"/>
      <circle cx="160" cy="740" r="7" fill="#32b4ff"/>
      <text x="174" y="737" fill="#c0ccd8" font-size="10">tag-1</text>

      <g transform="translate(380,770)">
        <rect x="-2.5" y="-9" width="5" height="18" fill="#f0a030"/>
        <rect x="-9" y="-2.5" width="18" height="5" fill="#f0a030"/>
      </g>
      <text x="394" y="767" fill="#f0a030" font-size="10">relay-1</text>

      <rect x="252" y="912" width="14" height="14" fill="none" stroke="#40d080" stroke-width="1.5"/>
      <text x="272" y="924" fill="#40d080" font-size="10">gw-0</text>
    </g>

    <!-- tag-2 SOS (earlier) -->
    <g>
      <circle cx="280" cy="810" r="32" fill="url(#pulse-sos)">
        <animate attributeName="r" values="24;36;24" dur="1.2s" repeatCount="indefinite"/>
        <animate attributeName="opacity" values="0.7;0.3;0.7" dur="1.2s" repeatCount="indefinite"/>
      </circle>
      <circle cx="280" cy="810" r="18" fill="none" stroke="#ff3c3c" stroke-opacity="0.6" stroke-width="2"/>
      <circle cx="280" cy="810" r="9" fill="#ff3c3c"/>
      <text x="296" y="807" fill="#c0ccd8" font-size="11" font-weight="bold">tag-2</text>
      <text x="296" y="819" fill="#ff3c3c" font-size="9" font-weight="bold">SOS · 42 s</text>
    </g>

    <!-- tag-5 SOS (most recent) -->
    <g>
      <circle cx="410" cy="930" r="32" fill="url(#pulse-sos)">
        <animate attributeName="r" values="24;36;24" dur="1.2s" repeatCount="indefinite"/>
        <animate attributeName="opacity" values="0.7;0.3;0.7" dur="1.2s" repeatCount="indefinite"/>
      </circle>
      <circle cx="410" cy="930" r="18" fill="none" stroke="#ff3c3c" stroke-opacity="0.7" stroke-width="2"/>
      <circle cx="410" cy="930" r="9" fill="#ff3c3c"/>
      <text x="426" y="927" fill="#c0ccd8" font-size="11" font-weight="bold">tag-5</text>
      <text x="426" y="939" fill="#ff3c3c" font-size="9" font-weight="bold">SOS · 8 s ← most recent</text>
    </g>
  </g>

  <g id="sidebar-b">
    <title>Sidebar abstracted in Panel B. Both SOS tags pinned in sticky DISTRESS section.</title>
    <line x1="500" y1="658" x2="820" y2="658" stroke="#1a2530" stroke-width="0.5"/>
    <line x1="500" y1="706" x2="820" y2="706" stroke="#1a2530" stroke-width="0.5"/>
    <line x1="500" y1="754" x2="820" y2="754" stroke="#1a2530" stroke-width="0.5"/>
    <line x1="500" y1="802" x2="820" y2="802" stroke="#1a2530" stroke-width="0.5"/>
    <line x1="500" y1="850" x2="820" y2="850" stroke="#1a2530" stroke-width="0.5"/>
    <line x1="500" y1="898" x2="820" y2="898" stroke="#1a2530" stroke-width="0.5"/>
    <text x="510" y="635" fill="#ff3c3c" font-size="10" font-weight="bold">DISTRESS · 2</text>
    <text x="510" y="650" fill="#ff3c3c" font-size="11" font-weight="bold">🔴 SOS · tag-5 · 8 s</text>
    <text x="510" y="698" fill="#ff3c3c" font-size="11" font-weight="bold">🔴 SOS · tag-2 · 42 s</text>
    <text x="510" y="730" fill="#6c7f92" font-size="9">NODES · 3</text>
    <text x="510" y="747" fill="#5a6a7a" font-size="10">● tag-1 · 12 s</text>
    <text x="510" y="795" fill="#5a6a7a" font-size="10">● relay-1 · POSITION 14 m</text>
    <text x="510" y="843" fill="#40d080" font-size="10">● gw-0 · RTC ok</text>
  </g>

  <g id="bottom-strip-b">
    <title>FULL-WIDTH SOS strip in Panel B. Shows MOST-RECENT SOS only (tag-5, 8 s).</title>
    <rect x="20" y="1036" width="800" height="24" fill="rgb(160,28,28)">
      <animate attributeName="fill" values="rgb(160,28,28);rgb(112,20,20);rgb(160,28,28)" dur="1.2s" repeatCount="indefinite"/>
    </rect>
    <text x="420" y="1053" fill="#ffffff" font-size="13" font-weight="bold" text-anchor="middle">DISTRESS · tag-5 · last frame 8s · ack at tag</text>
  </g>

  <g id="controls-b">
    <text x="32" y="625" fill="#5a6a7a" font-size="9">[compass]</text>
    <text x="32" y="1028" fill="#5a6a7a" font-size="9">[scale bar]</text>
  </g>

  <g id="annotations-b">
    <title>Panel B annotations</title>
    <text x="836" y="600" fill="#c0ccd8" font-size="10" font-weight="bold">Panel B — multi-SOS</text>

    <circle cx="488" cy="1048" r="7" fill="#070b10" stroke="#ff8232" stroke-width="0.8"/>
    <text x="488" y="1051" fill="#ff8232" font-size="9" text-anchor="middle">1</text>
    <text x="836" y="624" fill="#ff8232" font-size="10" font-weight="bold">1 · most-recent SOS only</text>
    <text x="836" y="639" fill="#6c7f92" font-size="9">strip shows tag-5 (8 s) only.</text>
    <text x="836" y="652" fill="#6c7f92" font-size="9">tag-2 (42 s) is OLDER → not shown</text>
    <text x="836" y="665" fill="#6c7f92" font-size="9">in strip. NO stacking, NO carousel.</text>
    <text x="836" y="678" fill="#6c7f92" font-size="9" font-style="italic">KIOSK-006:51-54, 76, 86</text>

    <circle cx="270" cy="805" r="10" fill="none" stroke="#ff8232" stroke-width="0.8"/>
    <text x="270" y="808" fill="#ff8232" font-size="9" text-anchor="middle">2</text>
    <circle cx="400" cy="925" r="10" fill="none" stroke="#ff8232" stroke-width="0.8"/>
    <text x="400" y="928" fill="#ff8232" font-size="9" text-anchor="middle">3</text>
    <text x="836" y="700" fill="#ff8232" font-size="10" font-weight="bold">2 + 3 · both markers pulse</text>
    <text x="836" y="715" fill="#6c7f92" font-size="9">tag-2 + tag-5 both carry SOS pulse</text>
    <text x="836" y="728" fill="#6c7f92" font-size="9">rings · operator sees both on the map.</text>
    <text x="836" y="741" fill="#6c7f92" font-size="9" font-style="italic">markers.rs:216-227</text>

    <!-- Layer anchors in Panel B -->
    <circle cx="280" cy="720" r="7" fill="#070b10" stroke="#ff8232" stroke-width="0.8"/>
    <text x="280" y="723" fill="#ff8232" font-size="9" text-anchor="middle">L1</text>
    <circle cx="390" cy="840" r="7" fill="#070b10" stroke="#ff8232" stroke-width="0.8"/>
    <text x="390" y="843" fill="#ff8232" font-size="9" text-anchor="middle">L2</text>
    <circle cx="160" cy="775" r="7" fill="#070b10" stroke="#ff8232" stroke-width="0.8"/>
    <text x="160" y="778" fill="#ff8232" font-size="9" text-anchor="middle">L3</text>

    <text x="836" y="763" fill="#c0ccd8" font-size="10" font-weight="bold">Map basemap (both panels)</text>
    <text x="836" y="778" fill="#6c7f92" font-size="9">L1 PMTiles basemap (Protomaps dark)</text>
    <text x="836" y="791" fill="#6c7f92" font-size="9">L2 LIDAR hillshade @ 0.5 (DHMV-II DSM)</text>
    <text x="836" y="804" fill="#6c7f92" font-size="9">L3 OSM XML overlays (Overpass + hand)</text>
    <text x="836" y="817" fill="#6c7f92" font-size="9" font-style="italic">pmtiles_map.rs:82-125 · region.rs:25-71</text>
    <text x="836" y="830" fill="#6c7f92" font-size="9" font-style="italic">dev-log/2026-05-16-lidar-overlay-implementation.md</text>

    <text x="836" y="858" fill="#c0ccd8" font-size="10" font-weight="bold">Sidebar (sticky DISTRESS)</text>
    <text x="836" y="873" fill="#6c7f92" font-size="9">Both SOS tags pinned in the sticky</text>
    <text x="836" y="886" fill="#6c7f92" font-size="9">DISTRESS section; only the strip is</text>
    <text x="836" y="899" fill="#6c7f92" font-size="9">constrained to most-recent.</text>
    <text x="836" y="912" fill="#6c7f92" font-size="9" font-style="italic">KIOSK-003:41 · KIOSK-006:54</text>

    <text x="836" y="936" fill="#c0ccd8" font-size="10" font-weight="bold">Multi-SOS budget · v2 concern</text>
    <text x="836" y="951" fill="#6c7f92" font-size="9">Two simultaneous SOS tags do not</text>
    <text x="836" y="964" fill="#6c7f92" font-size="9">fit the 1% sub-band M cap per ADR-014;</text>
    <text x="836" y="977" fill="#6c7f92" font-size="9">multi-tag SOS is a v2 concern, not</text>
    <text x="836" y="990" fill="#6c7f92" font-size="9">v1a UI.</text>
    <text x="836" y="1003" fill="#6c7f92" font-size="9" font-style="italic">KIOSK-006:51-53 · ARCHITECTURE.md §13</text>

    <text x="836" y="1027" fill="#c0ccd8" font-size="10" font-weight="bold">Non-SOS strip state</text>
    <text x="836" y="1042" fill="#6c7f92" font-size="9">Reverts to existing</text>
    <text x="836" y="1055" fill="#6c7f92" font-size="9">`read-only · PMTiles · zoom N`</text>
    <text x="836" y="1068" fill="#6c7f92" font-size="9">per app.rs:283-344 · no coord readout</text>
    <text x="836" y="1081" fill="#6c7f92" font-size="9">(KIOSK-002 deferred).</text>
  </g>
</svg>
